# xmcd
#
# Track frame offsets:
#	150
#	12214
#	22964
#	34367
#	43140
#	52867
#	64478
#	76899
#	88687
#	102152
#	115965
#	127840
#	142665
#	152983
#	165673
#	177007
#	188241
#	208285
#	222640
#	232130
#
# Disc length: 3249 seconds
#
# Revision: 1
# Processed by: cddbd v1.5.2PL0 Copyright (c) Steve Scherf et al.
# Submitted via: audiograbber 1.83.01
#
DISCID=160caf14
DTITLE=Frank Sinatra - The very best of Frank Sinatra 40 Greatest Hits CD 2
DYEAR=1900
DGENRE=
TTITLE0=Anything Goes
TTITLE1=At Long Last Love
TTITLE2=What Is This Thing Called Love?
TTITLE3=They Can't Take That Away From Me
TTITLE4=I've Got the World on a String
TTITLE5=It Happened in Monterey
TTITLE6=Pennies From Heaven
TTITLE7=The Girl Next Door
TTITLE8=Someone to Watch Over Me
TTITLE9=Three Coins in the Fountain
TTITLE10=Love and Marriage
TTITLE11=Just One of Those Things
TTITLE12=You're Getting to Be a Habit with Me
TTITLE13=You Brought a New Kind of Love to Me
TTITLE14=Too Marvelous for Words
TTITLE15=I Thought About You
TTITLE16=We'll Be Together Again
TTITLE17=Makin' Whoopee
TTITLE18=You'd Be So Nice to Come Home
TTITLE19=My Funny Valentine
EXTD=
EXTT0=
EXTT1=
EXTT2=
EXTT3=
EXTT4=
EXTT5=
EXTT6=
EXTT7=
EXTT8=
EXTT9=
EXTT10=
EXTT11=
EXTT12=
EXTT13=
EXTT14=
EXTT15=
EXTT16=
EXTT17=
EXTT18=
EXTT19=
PLAYORDER=
